<svg width="27" height="20" viewBox="0 0 27 20" fill="none" xmlns="http://www.w3.org/2000/svg">
<path d="M25.7812 19.9937H1.03125C0.4675 19.9937 0 19.6537 0 19.2437C0 18.8337 0.4675 18.4937 1.03125 18.4937H25.7812C26.345 18.4937 26.8125 18.8337 26.8125 19.2437C26.8125 19.6537 26.345 19.9937 25.7812 19.9937Z" fill="#292D32"/>
<path d="M23.0588 1.47381C20.3913 -0.46619 17.7788 -0.51619 15.0425 1.47381L13.3788 2.68381C13.2413 2.78381 13.1863 2.94381 13.2413 3.08381C14.2863 5.73381 17.2013 7.85381 20.845 8.61381C20.9 8.62381 20.955 8.63381 21.01 8.63381C21.1613 8.63381 21.2988 8.59381 21.4088 8.51381L23.0588 7.30381C24.42 6.32381 25.08 5.37381 25.08 4.41381C25.0938 3.42381 24.4338 2.46381 23.0588 1.47381Z" fill="#292D32"/>
<path d="M18.3702 9.48C17.9714 9.34 17.5864 9.2 17.2152 9.04C16.9127 8.91 16.6239 8.77 16.3352 8.62C16.1014 8.51 15.8264 8.35 15.5652 8.19C15.5377 8.18 15.4414 8.12 15.3314 8.04C14.8777 7.76 14.3689 7.4 13.9152 7C13.8739 6.98 13.8052 6.91 13.7089 6.82C13.5714 6.7 13.3377 6.5 13.1314 6.27C12.9664 6.12 12.7739 5.9 12.5952 5.68C12.3752 5.41 12.1827 5.14 11.9902 4.86C11.9158 4.74405 11.8476 4.6296 11.7839 4.51722C11.6323 4.24969 11.2838 4.16372 11.0352 4.34457L2.87394 10.28C2.69519 10.41 2.53019 10.66 2.48894 10.83L1.74644 14.66C1.60894 15.34 1.87019 15.98 2.44769 16.41C2.94269 16.76 3.63019 16.95 4.37269 16.95C4.53769 16.95 4.70269 16.94 4.86769 16.92L10.1477 16.38C10.3952 16.35 10.7389 16.23 10.9039 16.1L18.6833 10.4423C19.0248 10.1939 18.9255 9.65282 18.5222 9.52757C18.4721 9.51201 18.4215 9.49616 18.3702 9.48Z" fill="#292D32"/>
</svg>
